#!OML:ASF I:\Actors\actors\Patient Classification 2\Patient 1\Session 1\actor1.ASF
:FULLY-SPECIFIED
:DEGREES
203
root -0.911722 18.6665 6.18421 1.19688 -4.29521 -4.29204
lowerback 4.21951 1.29039 2.05846
upperback -3.1851 1.92225 1.10329
thorax -5.64241 0.89344 -0.181718
lowerneck -9.91541 -0.768005 1.15727
upperneck 25.4644 -1.61183 1.07315
head 9.67387 -0.524523 -0.0049954
rclavicle 1.80273e-014 -7.15625e-015
rhumerus -51.9855 -6.07967 -84.9283
rradius 42.1088
rwrist 17.5491
rhand -9.69099 -29.5523
rfingers 7.12502
rthumb 16.2812 -58.8888
lclavicle 1.80273e-014 -7.15625e-015
lhumerus -45.9396 5.64947 87.3492
lradius 37.1615
lwrist -14.0426
lhand -4.27154 -24.9117
lfingers 7.12502
lthumb 21.4932 3.91582
rfemur 0 0 0
rtibia 0
rfoot 0 0
rtoes 0
lfemur -3.75143 -5.73244 -10.9087
ltibia 23.1848
lfoot -25.5196 15.4254
ltoes -53.9882
204
root -0.91093 18.6666 6.18535 1.19958 -4.29846 -4.31279
lowerback 4.21586 1.31407 2.09076
upperback -3.19278 1.95485 1.07785
thorax -5.64593 0.90767 -0.229049
lowerneck -9.95436 -0.812002 1.19139
upperneck 25.4808 -1.68001 1.06505
head 9.68691 -0.55347 -0.0214608
rclavicle 9.7653e-015 1.53064e-014
rhumerus -52.0123 -6.20605 -84.8301
rradius 42.1134
rwrist 17.6306
rhand -9.03259 -29.5723
rfingers 7.12502
rthumb 16.9151 -58.8556
lclavicle 9.7653e-015 1.53064e-014
lhumerus -45.896 5.48812 87.455
lradius 37.1098
lwrist -13.9013
lhand -4.31077 -24.927
lfingers 7.12502
lthumb 21.4555 3.90483
rfemur 0 0 0
rtibia 0
rfoot 0 0
rtoes 0
lfemur -3.74338 -5.78107 -10.8955
ltibia 23.1874
lfoot -25.5371 15.4313
ltoes -53.9065
205
root -0.910571 18.6662 6.18791 1.18325 -4.27358 -4.30069
lowerback 4.21085 1.30537 2.07106
upperback -3.19471 1.94134 1.06964
thorax -5.64562 0.901592 -0.225249
lowerneck -9.97455 -0.824654 1.17888
upperneck 25.4956 -1.69245 1.05096
head 9.69597 -0.561778 -0.0257548
rclavicle 8.74653e-015 1.74931e-014
rhumerus -52.0398 -6.25743 -84.7426
rradius 42.1047
rwrist 17.7267
rhand -8.52776 -29.4011
rfingers 7.12502
rthumb 17.401 -58.6422
lclavicle 8.74653e-015 1.74931e-014
lhumerus -45.8753 5.42685 87.5654
lradius 37.0744
lwrist -13.7539
lhand -4.38983 -24.911
lfingers 7.12502
lthumb 21.3796 3.92953
rfemur 0 0 0
rtibia 0
rfoot 0 0
rtoes 0
lfemur -3.72177 -5.82535 -10.9142
ltibia 23.1876
lfoot -25.5382 15.4365
ltoes -53.9899
206
root -0.909956 18.6654 6.19045 1.16627 -4.26216 -4.2783
lowerback 4.1797 1.29093 2.03497
upperback -3.18662 1.91844 1.06954
thorax -5.62077 0.892001 -0.202256
lowerneck -9.92527 -0.798812 1.18246
upperneck 25.4574 -1.65394 1.04736
head 9.67279 -0.544621 -0.0229889
rclavicle 8.69683e-015 -3.77691e-015
rhumerus -52.0447 -6.22752 -84.6909
rradius 42.094
rwrist 17.7668
rhand -8.66304 -29.2942
rfingers 7.12502
rthumb 17.2708 -58.5468
lclavicle 8.69683e-015 -3.77691e-015
lhumerus -45.848 5.43572 87.6416
lradius 37.0827
lwrist -13.6931
lhand -4.35528 -24.8092
lfingers 7.12502
lthumb 21.4128 4.02748
rfemur 0 0 0
rtibia 0
rfoot 0 0
rtoes 0
lfemur -3.69828 -5.87567 -10.9487
ltibia 23.1858
lfoot -25.5841 15.4549
ltoes -54.0168
207
root -0.90969 18.665 6.19118 1.16864 -4.26809 -4.28406
lowerback 4.17516 1.29401 2.02398
upperback -3.20514 1.92243 1.0753
thorax -5.63812 0.894276 -0.190601
lowerneck -9.82283 -0.778933 1.20217
upperneck 25.3886 -1.62777 1.05307
head 9.62859 -0.531172 -0.0207978
rclavicle 6.24929e-015 5.96354e-015
rhumerus -52.1085 -6.20072 -84.6274
rradius 42.1105
rwrist 17.8114
rhand -8.71722 -29.1009
rfingers 7.12502
rthumb 17.2186 -58.358
lclavicle 6.24929e-015 5.96354e-015
lhumerus -45.8507 5.46297 87.6696
lradius 37.0925
lwrist -13.7375
lhand -4.29519 -24.7511
lfingers 7.12502
lthumb 21.4705 4.07908
rfemur 0 0 0
rtibia 0
rfoot 0 0
rtoes 0
lfemur -3.69393 -5.88429 -10.944
ltibia 23.182
lfoot -25.601 15.4576
ltoes -53.9644
208
root -0.90952 18.665 6.19163 1.17018 -4.28505 -4.28518
lowerback 4.19298 1.31513 2.02781
upperback -3.23257 1.95165 1.06606
thorax -5.67625 0.907855 -0.205711
lowerneck -9.73692 -0.784828 1.20561
upperneck 25.3307 -1.63819 1.0706
head 9.59174 -0.534759 -0.0158969
rclavicle 3.9993e-014 7.95139e-015
rhumerus -52.1897 -6.22894 -84.5583
rradius 42.1226
rwrist 17.8292
rhand -8.63324 -29.0339
rfingers 7.12502
rthumb 17.2995 -58.2839
lclavicle 3.9993e-014 7.95139e-015
lhumerus -45.8891 5.44659 87.6953
lradius 37.1134
lwrist -13.7828
lhand -4.30363 -24.8017
lfingers 7.12502
lthumb 21.4624 4.02938
rfemur 0 0 0
rtibia 0
rfoot 0 0
rtoes 0
lfemur -3.69305 -5.79647 -10.9355
ltibia 23.1802
lfoot -25.5525 15.4199
ltoes -54.0083
